<svg width="204" height="58" viewBox="0 0 204 58" fill="none" xmlns="http://www.w3.org/2000/svg">
<path d="M14.4333 27.4398L19.1005 22.4394L16.9658 25.6879L21.7257 24.379L25.9953 21.5721L27.0295 18.5286L26.0218 16.0528L23.7544 14.0816L24.603 16.0843L24.5234 17.819L23.6616 15.0751L22.6274 13.4666L18.5966 12.3312L20.8773 13.6874L22.8529 15.2643L24.0462 18.0713L22.2562 20.2317L17.5491 20.6732L16.1172 19.9005L14.4267 19.5235L14.4333 27.4398Z" fill="black"/>
<path fill-rule="evenodd" clip-rule="evenodd" d="M17.8619 12.0158L20.8182 13.7736L22.7676 15.3297L23.9255 18.0535L22.2038 20.1316L17.5707 20.5662L16.1537 19.8016L14.3226 19.3932L14.3295 27.7037L18.3403 23.4066L16.7268 25.8619L21.769 24.4754L26.0821 21.6398L27.1405 18.5253L26.1086 15.9901L23.4828 13.7073L24.498 16.1033L24.4465 17.2268L23.7566 15.0302L22.6934 13.3767L17.8619 12.0158ZM22.5614 13.5565L23.5667 15.12L24.6004 18.4111L24.708 16.0653L24.026 14.4559L25.9349 16.1155L26.9185 18.5319L25.9084 21.5043L21.6825 24.2826L17.2047 25.5138L19.1873 22.4969L19.0247 22.3679L14.5371 27.1759L14.5308 19.6537L16.0806 19.9994L17.5276 20.7802L22.3086 20.3317L24.1668 18.089L22.9382 15.199L20.9364 13.6011L19.3312 12.6467L22.5614 13.5565Z" fill="black"/>
<path d="M1.24696 18.5128L2.28123 21.5563L6.55075 24.3632L11.3107 25.6721L9.17596 22.4236L13.8498 27.4312V19.5093L12.1593 19.8847L10.7274 20.6574L6.02028 20.2159L4.23032 18.0555L5.42357 15.2485L7.39919 13.6716L9.67991 12.3154L5.6491 13.4508L4.61484 15.0593L3.75305 17.8032L3.67348 16.0686L4.52208 14.0658L2.2547 16.037L1.24696 18.5128Z" fill="black"/>
<path fill-rule="evenodd" clip-rule="evenodd" d="M10.4146 12L5.58313 13.3609L4.51989 15.0144L3.82998 17.2111L3.77845 16.0876L4.79369 13.6916L2.16787 15.9743L1.13596 18.5095L2.19437 21.624L6.50751 24.4597L11.5497 25.8461L9.93622 23.3909L13.9538 27.6953V19.3792L12.1228 19.7858L10.7058 20.5505L6.07271 20.1159L4.35093 18.0378L5.50886 15.3139L7.45829 13.7579L10.4146 12ZM8.94524 12.6309L7.3401 13.5853L5.33829 15.1832L4.10971 18.0732L5.96784 20.3159L10.7489 20.7644L12.1958 19.9836L13.7458 19.6394V27.167L9.25181 22.3521L9.08919 22.4812L11.0718 25.4981L6.59398 24.2668L2.36808 21.4885L1.35796 18.5161L2.34154 16.0997L4.25047 14.4401L3.56852 16.0496L3.67612 18.3953L4.70978 15.1042L5.71508 13.5408L8.94524 12.6309Z" fill="black"/>
<path d="M12.5438 41.8199L11.9605 41.5834L10.7008 40.1483L11.9471 37.9722L12.6101 38.8868L14.145 39.0599L15.6664 38.9026L16.3293 37.9879L17.5756 40.1641L16.316 41.5991L15.7326 41.8357L15.8784 42.8291L16.6209 43.0499L15.7193 43.4757L14.7381 43.523L14.0353 45.6203L13.5381 43.5072L12.5569 43.4599L11.6552 43.0341L12.3977 42.8134L12.5438 41.8199ZM16.1835 40.2272L16.3824 38.5872L15.2951 40.3218L15.0564 41.1576L16.1835 40.2272ZM13.2201 41.1418L12.9814 40.306L11.8941 38.5714L12.0929 40.2114L13.2201 41.1418Z" fill="black"/>
<path fill-rule="evenodd" clip-rule="evenodd" d="M11.9369 37.7806L11.7385 38.1271L11.7347 38.1212L11.736 38.1314L10.5735 40.1612L11.8988 41.671L12.429 41.886L12.3046 42.7321L11.3636 43.0119L12.5313 43.5633L13.4549 43.6078L14.0178 46L14.814 43.6239L15.7449 43.579L16.9125 43.0277L15.9716 42.7479L15.8475 41.9018L16.3777 41.6868L17.703 40.177L16.5405 38.1472L16.5417 38.1369L16.538 38.1428L16.3396 37.7963L15.6096 38.8034L14.1455 38.9549L12.6672 38.7881L11.9369 37.7806ZM16.4986 38.4929L16.2817 40.2814L14.8643 41.4513L15.1992 40.2787L16.4126 38.3429L16.3191 38.1796L15.7232 39.0017L14.1445 39.165L12.553 38.9855L11.9574 38.1638L11.8638 38.3271L13.0773 40.2629L13.4122 41.4356L11.9948 40.2656L11.7779 38.4771L10.8282 40.1355L12.0222 41.4957L12.6587 41.7538L12.4909 42.8946L11.9468 43.0564L12.5824 43.3565L13.6213 43.4066L14.0528 45.2406L14.6622 43.422L15.6937 43.3723L16.3293 43.0722L15.7853 42.9104L15.6178 41.7696L16.2543 41.5115L17.4483 40.1512L16.4986 38.4929ZM12.8855 40.3491L13.028 40.8481L12.1911 40.1573L12.0534 39.0217L12.8855 40.3491ZM16.223 39.0374L15.3909 40.3649L15.2485 40.8638L16.0854 40.173L16.223 39.0374Z" fill="black"/>
<path d="M2.93098 25.0729L5.51649 24.4421L8.11533 25.2936L11.5229 26.9652L13.8829 29.1729L14.1351 37.8572L14.3936 29.1887L16.7537 26.9809L20.1613 25.3094L22.7602 24.4578L25.3457 25.0886L28.0241 26.3659L26.3667 27.0756L24.6564 28.4002L22.6145 29.4252L20.745 28.9679L20.5727 32.7841L18.597 35.5437L17.6292 39.076L17.2315 37.7199L16.2502 37.1837L16.4226 34.566L17.2712 31.2544L19.0876 30.9233L20.2677 29.3463L20.4666 27.5644L19.8567 29.4252L19.3264 30.2767L18.1066 30.876L16.953 31.081L16.2371 32.7998L15.9984 35.5279L15.9453 37.5464L15.5608 38.2087L14.1488 38.4442L12.7166 38.193L12.3321 37.5306L12.2791 35.5122L12.0404 32.7841L11.3244 31.0652L10.1708 30.8602L8.95106 30.261L8.42075 29.4094L7.81086 27.5486L8.00971 29.3306L9.18978 30.9075L11.0063 31.2387L11.8549 34.5502L12.0272 37.1679L11.046 37.7041L10.6483 39.0603L9.68039 35.5279L7.70477 32.7683L7.53244 28.9521L5.66292 29.4094L3.62106 28.3844L1.91068 27.0598L0.253345 26.3502L2.93098 25.0729ZM23.6351 26.6182L26.2472 26.8548L23.352 25.7227L21.1689 27.3121L23.6351 26.6182ZM19.2862 29.9298L19.9756 27.8956L18.4641 29.1413L17.0453 30.7814L19.2862 29.9298ZM17.2177 29.3779L19.2595 27.6748L16.9789 29.031L15.7989 32.3268L17.2177 29.3779ZM12.4775 32.311L11.2974 29.0152L9.01682 27.659L11.0587 29.3621L12.4775 32.311ZM8.9903 29.914L11.2279 30.7618L9.81238 29.1256L8.30084 27.8798L8.9903 29.914ZM4.64136 26.6025L7.10759 27.2963L4.92449 25.7069L2.02933 26.839L4.64136 26.6025Z" fill="black"/>
<path fill-rule="evenodd" clip-rule="evenodd" d="M5.52065 24.3336L2.89605 24.9739L0.000114441 26.3553L1.42233 26.9643L1.30708 27.0093L1.48908 26.9928L1.85771 27.1507L3.56557 28.4734L5.65051 29.52L7.43429 29.0837L7.60229 32.8041L9.58508 35.5737L10.6449 39.4415L11.1335 37.7752L12.1353 37.2278L11.958 34.5336L11.0903 31.1478L9.24841 30.812L8.9068 30.3555L10.1383 30.9605L11.2504 31.1582L11.9382 32.8094L12.1752 35.5181L12.2289 37.5602L12.6512 38.2875L14.1483 38.5501L15.626 38.3038L16.0485 37.5759L16.1022 35.5339L16.3392 32.8252L17.0271 31.1739L18.1391 30.9763L19.3706 30.3713L19.029 30.8278L17.1871 31.1636L16.3195 34.5494L16.1421 37.2435L17.1439 37.791L17.6326 39.4573L18.6923 35.5895L20.6751 32.8198L20.8431 29.0994L22.6269 29.5358L24.7119 28.4891L26.4197 27.1665L26.7882 27.0087L26.9694 27.0251L26.8546 26.9802L28.2773 26.3711L25.3806 24.9896L22.756 24.3493L20.1222 25.2123L16.6942 26.8939L14.291 29.1419L14.1365 34.3225L13.9856 29.1262L11.5824 26.8781L8.15445 25.1965L5.52065 24.3336ZM26.3503 26.969L26.3138 26.9847L24.6009 28.3113L22.6021 29.3146L20.6468 28.8363L20.4702 32.7483L18.5017 35.4979L17.6258 38.6948L17.319 37.6488L16.3584 37.1239L16.5257 34.5826L17.3553 31.3453L19.1463 31.0188L20.3679 29.3863L20.6817 26.5739L19.7619 29.3805L19.254 30.196L18.0741 30.7757L16.879 30.988L16.1349 32.7745L15.8945 35.522L15.8421 37.5169L15.4956 38.1137L14.1492 38.3382L12.7821 38.0984L12.4354 37.5011L12.3829 35.5062L12.1425 32.7587L11.3984 30.9723L10.2034 30.7599L9.02344 30.1802L8.90772 29.9944L11.5765 31.0056L9.8851 29.0504L8.08487 27.5667L8.90766 29.9943L8.51558 29.3647L7.5957 26.5582L7.90954 29.3706L9.13114 31.003L10.9222 31.3295L11.7517 34.5668L11.919 37.1081L10.9584 37.633L10.6517 38.679L9.77569 35.4821L7.80724 32.7325L7.63059 28.8206L5.67532 29.2989L3.67655 28.2955L1.96365 26.9689L1.92696 26.9532L4.63169 26.7083L7.63931 27.5544L4.9396 25.5889L1.6996 26.8558L0.506577 26.345L2.96591 25.1718L5.51232 24.5506L8.07622 25.3907L11.4634 27.0522L13.7802 29.2196L14.0312 37.8603L14.239 37.8603L14.4962 29.2354L16.8133 27.068L20.2004 25.4065L22.7643 24.5664L25.3107 25.1876L27.7708 26.3608L26.5774 26.8718L23.3369 25.6047L20.6372 27.5702L23.6448 26.724L26.3503 26.969ZM19.4869 30.2159L19.9515 29.4699L20.2514 28.5549L20.1675 29.3064L19.4869 30.2159ZM8.79048 30.2001L8.10988 29.2906L8.02603 28.5391L8.32592 29.4541L8.79048 30.2001ZM4.90937 25.825L6.57587 27.0382L4.65102 26.4967L2.75159 26.6687L4.90937 25.825ZM25.5249 26.6845L23.6255 26.5125L21.7006 27.054L23.3671 25.8407L25.5249 26.6845ZM11.2122 29.0859L11.7094 30.4747L11.1425 29.2962L10.091 28.4192L11.2122 29.0859ZM9.06978 27.5691L8.95041 27.7394L10.9749 29.428L12.3838 32.3565L12.5753 32.2756L11.3826 28.9444L9.06978 27.5691ZM20.1916 27.5824L18.3914 29.0662L16.6961 31.0258L19.3688 30.0101L20.1916 27.5824ZM19.3259 27.7552L19.2065 27.5849L16.8938 28.9602L15.701 32.2914L15.8925 32.3722L17.3014 29.4438L19.3259 27.7552ZM18.1853 28.435L17.1339 29.312L16.5669 30.4904L17.0641 29.1017L18.1853 28.435ZM9.73965 29.2008L10.8792 30.5181L9.07291 29.8337L8.51682 28.1929L9.73965 29.2008ZM19.7597 28.2087L19.2036 29.8495L17.3945 30.537L18.5368 29.2165L19.7597 28.2087Z" fill="black"/>
<path d="M60.0156 39H56.3906C56.3073 39 56.2656 38.9479 56.2656 38.8438L56.3281 16.8594C56.3281 16.776 56.3698 16.7344 56.4531 16.7344H60.3594C60.4427 16.7344 60.5156 16.776 60.5781 16.8594L63.5 21.0781L66.4062 16.8594C66.4688 16.776 66.5469 16.7344 66.6406 16.7344H70.5625C70.6562 16.7344 70.7031 16.776 70.7031 16.8594L70.7656 38.8438C70.7656 38.9479 70.724 39 70.6406 39H67.0156C66.9323 39 66.8906 38.9479 66.8906 38.8438L66.8594 22.5156L63.5 27.3906L60.1719 22.5156L60.1406 38.8438C60.1406 38.9479 60.099 39 60.0156 39ZM79.375 39.3125C78.2396 39.3125 77.1927 39.0208 76.2344 38.4375C75.2865 37.8542 74.5208 37.0781 73.9375 36.1094C73.3646 35.1302 73.0781 34.0573 73.0781 32.8906L73.1094 22.75C73.1094 21.5625 73.3958 20.4948 73.9688 19.5469C74.5312 18.5885 75.2917 17.8229 76.25 17.25C77.2083 16.6667 78.25 16.375 79.375 16.375C80.5417 16.375 81.5885 16.6615 82.5156 17.2344C83.4531 17.8073 84.2031 18.5781 84.7656 19.5469C85.3385 20.5052 85.625 21.5729 85.625 22.75L85.6562 32.8906C85.6562 34.0573 85.375 35.125 84.8125 36.0938C84.2396 37.0729 83.4792 37.8542 82.5312 38.4375C81.5833 39.0208 80.5312 39.3125 79.375 39.3125ZM79.375 35.4531C80.0208 35.4531 80.5833 35.1927 81.0625 34.6719C81.5417 34.1406 81.7812 33.5469 81.7812 32.8906L81.75 22.75C81.75 22.0417 81.526 21.4427 81.0781 20.9531C80.6302 20.4635 80.0625 20.2188 79.375 20.2188C78.7188 20.2188 78.1562 20.4583 77.6875 20.9375C77.2188 21.4167 76.9844 22.0208 76.9844 22.75V32.8906C76.9844 33.5885 77.2188 34.1927 77.6875 34.7031C78.1562 35.2031 78.7188 35.4531 79.375 35.4531ZM94.9062 39H91.2969C91.2031 39 91.1562 38.9479 91.1562 38.8438V20.5938H87C86.8958 20.5938 86.8438 20.5417 86.8438 20.4375L86.875 16.8594C86.875 16.776 86.9167 16.7344 87 16.7344H99.1562C99.2708 16.7344 99.3281 16.776 99.3281 16.8594V20.4375C99.3281 20.5417 99.2865 20.5938 99.2031 20.5938H95L95.0312 38.8438C95.0312 38.9479 94.9896 39 94.9062 39ZM104.672 39H101.047C100.943 39 100.891 38.9479 100.891 38.8438L100.922 16.8594C100.922 16.776 100.964 16.7344 101.047 16.7344H104.641C104.724 16.7344 104.766 16.776 104.766 16.8594L104.797 38.8438C104.797 38.9479 104.755 39 104.672 39ZM111.359 39H107.734C107.651 39 107.609 38.9479 107.609 38.8438L107.672 16.8906C107.672 16.7865 107.714 16.7344 107.797 16.7344H111.391C111.474 16.7344 111.516 16.7865 111.516 16.8906V24.4688L116.531 16.8594C116.615 16.776 116.693 16.7344 116.766 16.7344H120.438C120.531 16.7344 120.552 16.776 120.5 16.8594L114.969 25.6875L121.172 38.875C121.224 38.9583 121.172 39 121.016 39H117.109C117.005 39 116.943 38.9583 116.922 38.875L112.594 29.4688L111.484 31.2188V38.8438C111.484 38.9479 111.443 39 111.359 39ZM136.781 39.3125C135.625 39.3125 134.583 39.026 133.656 38.4531C132.719 37.8802 131.964 37.1094 131.391 36.1406C130.828 35.1719 130.547 34.0885 130.547 32.8906V22.75C130.547 21.5833 130.833 20.5208 131.406 19.5625C131.969 18.5938 132.724 17.8229 133.672 17.25C134.62 16.6667 135.656 16.375 136.781 16.375C137.958 16.375 139.021 16.6562 139.969 17.2188C140.917 17.7917 141.667 18.5573 142.219 19.5156C142.781 20.474 143.062 21.5521 143.062 22.75V24.2188C143.062 24.3021 143.01 24.3438 142.906 24.3438H139.312C139.229 24.3438 139.188 24.3021 139.188 24.2188V23C139.188 22.1875 138.958 21.5156 138.5 20.9844C138.042 20.4531 137.469 20.1875 136.781 20.1875C136.167 20.1875 135.62 20.4427 135.141 20.9531C134.661 21.4635 134.422 22.0625 134.422 22.75V32.8906C134.422 33.5885 134.656 34.1927 135.125 34.7031C135.594 35.2031 136.146 35.4531 136.781 35.4531C137.469 35.4531 138.042 35.2083 138.5 34.7188C138.958 34.2188 139.188 33.6094 139.188 32.8906V31.3125H136.953C136.839 31.3125 136.781 31.2604 136.781 31.1562V27.5781C136.781 27.474 136.839 27.4219 136.953 27.4219H142.938C143.021 27.4219 143.062 27.474 143.062 27.5781V32.8906C143.062 34.0885 142.781 35.1719 142.219 36.1406C141.646 37.1094 140.891 37.8802 139.953 38.4531C139.016 39.026 137.958 39.3125 136.781 39.3125ZM149.078 39H145.453C145.37 39 145.328 38.9479 145.328 38.8438L145.391 16.8594C145.391 16.776 145.432 16.7344 145.516 16.7344H151.984C153.141 16.7344 154.203 17.0156 155.172 17.5781C156.141 18.1406 156.911 18.8958 157.484 19.8438C158.068 20.7917 158.359 21.8646 158.359 23.0625C158.359 23.8438 158.24 24.5521 158 25.1875C157.76 25.8229 157.479 26.3594 157.156 26.7969C156.844 27.2344 156.557 27.5573 156.297 27.7656C157.453 29.0469 158.031 30.5521 158.031 32.2812L158.062 38.8438C158.062 38.9479 158.01 39 157.906 39H154.281C154.198 39 154.156 38.9688 154.156 38.9062V32.2812C154.156 31.5104 153.885 30.8438 153.344 30.2812C152.802 29.7188 152.135 29.4375 151.344 29.4375H149.234L149.203 38.8438C149.203 38.9479 149.161 39 149.078 39ZM151.984 20.5625H149.234V25.5938H151.984C152.641 25.5938 153.224 25.349 153.734 24.8594C154.255 24.3698 154.516 23.7708 154.516 23.0625C154.516 22.3854 154.266 21.8021 153.766 21.3125C153.266 20.8125 152.672 20.5625 151.984 20.5625ZM166.688 39.3125C165.552 39.3125 164.505 39.0208 163.547 38.4375C162.599 37.8542 161.833 37.0781 161.25 36.1094C160.677 35.1302 160.391 34.0573 160.391 32.8906L160.422 22.75C160.422 21.5625 160.708 20.4948 161.281 19.5469C161.844 18.5885 162.604 17.8229 163.562 17.25C164.521 16.6667 165.562 16.375 166.688 16.375C167.854 16.375 168.901 16.6615 169.828 17.2344C170.766 17.8073 171.516 18.5781 172.078 19.5469C172.651 20.5052 172.938 21.5729 172.938 22.75L172.969 32.8906C172.969 34.0573 172.688 35.125 172.125 36.0938C171.552 37.0729 170.792 37.8542 169.844 38.4375C168.896 39.0208 167.844 39.3125 166.688 39.3125ZM166.688 35.4531C167.333 35.4531 167.896 35.1927 168.375 34.6719C168.854 34.1406 169.094 33.5469 169.094 32.8906L169.062 22.75C169.062 22.0417 168.839 21.4427 168.391 20.9531C167.943 20.4635 167.375 20.2188 166.688 20.2188C166.031 20.2188 165.469 20.4583 165 20.9375C164.531 21.4167 164.297 22.0208 164.297 22.75V32.8906C164.297 33.5885 164.531 34.1927 165 34.7031C165.469 35.2031 166.031 35.4531 166.688 35.4531ZM181.281 39.3125C180.156 39.3125 179.115 39.0208 178.156 38.4375C177.198 37.8542 176.432 37.0729 175.859 36.0938C175.297 35.1042 175.016 34.026 175.016 32.8594L175.078 16.8594C175.078 16.776 175.12 16.7344 175.203 16.7344H178.797C178.88 16.7344 178.922 16.776 178.922 16.8594V32.8594C178.922 33.5781 179.151 34.1927 179.609 34.7031C180.068 35.2031 180.625 35.4531 181.281 35.4531C181.969 35.4531 182.542 35.2031 183 34.7031C183.458 34.1927 183.688 33.5781 183.688 32.8594V16.8594C183.688 16.776 183.729 16.7344 183.812 16.7344H187.406C187.49 16.7344 187.531 16.776 187.531 16.8594L187.594 32.8594C187.594 34.0365 187.312 35.1198 186.75 36.1094C186.177 37.0885 185.417 37.8698 184.469 38.4531C183.521 39.026 182.458 39.3125 181.281 39.3125ZM193.859 39H190.266C190.161 39 190.109 38.9479 190.109 38.8438L190.172 16.8594C190.172 16.776 190.214 16.7344 190.297 16.7344H196.453C198.411 16.7344 199.958 17.3333 201.094 18.5312C202.24 19.7188 202.812 21.3385 202.812 23.3906C202.812 24.8906 202.516 26.1979 201.922 27.3125C201.318 28.4167 200.536 29.2708 199.578 29.875C198.62 30.4792 197.578 30.7812 196.453 30.7812H194.016V38.8438C194.016 38.9479 193.964 39 193.859 39ZM196.453 20.5312L194.016 20.5625V26.9062H196.453C197.13 26.9062 197.719 26.5833 198.219 25.9375C198.719 25.2812 198.969 24.4323 198.969 23.3906C198.969 22.5573 198.745 21.875 198.297 21.3438C197.849 20.8021 197.234 20.5312 196.453 20.5312Z" fill="black"/>
</svg>
