<svg width="43" height="40" viewBox="0 0 43 40" fill="none" xmlns="http://www.w3.org/2000/svg">
<path fill-rule="evenodd" clip-rule="evenodd" d="M29.5228 34.607C29.7515 33.4327 29.3419 32.6714 28.1265 31.9921C28.1334 31.9455 28.1386 31.8966 28.1439 31.8467C28.1518 31.7724 28.16 31.6955 28.1743 31.6199C28.4679 30.1179 29.3316 29.0323 30.5333 28.1071C35.6915 24.1403 37.8798 18.8933 36.6542 12.5026C34.5923 1.75253 22.4835 -3.38867 13.215 2.42504C7.5003 6.00954 4.73853 12.8952 6.42836 19.4258C7.36033 23.0342 9.36765 25.9325 12.3786 28.1208C13.5803 28.9947 14.403 30.0871 14.7171 31.5517C14.782 31.8589 14.7785 32.033 14.4372 32.1969C13.5325 32.6339 13.1365 33.6648 13.3994 34.7094C13.6281 35.6209 14.4167 36.232 15.3964 36.2559C15.5863 36.2604 15.7747 36.259 15.9779 36.2575C16.0853 36.2567 16.1967 36.2559 16.3148 36.2559C16.3148 36.3487 16.3143 36.4356 16.3139 36.5187C16.3132 36.674 16.3125 36.8156 16.3148 36.9557C16.3489 38.7343 17.5164 39.9428 19.2848 39.9769C20.7356 40.0077 22.1865 40.0077 23.634 39.9769C25.3852 39.9394 26.5494 38.7377 26.5903 36.9864C26.5927 36.827 26.5918 36.6658 26.591 36.5308V36.5308L26.5905 36.4507L26.5903 36.372C26.8037 36.3328 27.0125 36.303 27.2162 36.2739C27.6512 36.2118 28.0627 36.153 28.444 36.0135C29.0517 35.7916 29.3999 35.2488 29.5228 34.607ZM26.7075 31.8888C26.7009 31.8981 26.6936 31.9083 26.6859 31.9204C23.197 31.9204 19.7013 31.9204 16.1816 31.9169C16.1568 31.8009 16.1343 31.6852 16.1119 31.5703C16.0664 31.337 16.0215 31.1067 15.9597 30.8826C15.5227 29.2781 14.5942 28.0286 13.2457 27.0625C11.0131 25.4614 9.37448 23.3892 8.33327 20.8425C6.02553 15.2029 7.66075 8.65525 12.3411 4.75326C15.1302 2.42846 18.3255 1.27801 21.9646 1.36336C28.5806 1.5238 34.4967 6.69232 35.415 13.2366C36.2241 18.9957 34.2304 23.6385 29.5774 27.1206C28.0514 28.2642 27.0853 29.7287 26.7883 31.6199C26.7747 31.6951 26.7576 31.7633 26.7371 31.835C26.7325 31.8536 26.7215 31.869 26.7075 31.8888ZM27.297 34.9074H21.4559C20.8015 34.9074 20.1471 34.9078 19.4928 34.9082H19.4924H19.492H19.4916H19.4912H19.4909H19.4905C18.183 34.909 16.876 34.9097 15.5705 34.9074C14.9492 34.9074 14.642 34.5592 14.7137 33.9652C14.7581 33.5829 14.9663 33.3473 15.3555 33.2995C15.4579 33.2893 15.5603 33.2859 15.6627 33.2859C16.9509 33.2859 18.239 33.2855 19.5271 33.2851C22.1034 33.2844 24.6797 33.2836 27.256 33.2859C27.9422 33.2859 28.2597 33.5931 28.2051 34.1837C28.1607 34.6787 27.8842 34.9074 27.297 34.9074ZM17.6769 36.7646V36.2764H25.1634C25.4228 37.4576 24.9653 38.3554 23.9992 38.5705C23.832 38.608 23.651 38.6114 23.4769 38.6114H19.5271C18.2538 38.6114 17.6769 38.0345 17.6769 36.7646ZM24.1699 7.00641C24.4326 7.11535 24.6852 7.21986 24.9424 7.32625L25.5389 7.57309C25.6013 7.52847 25.6681 7.48242 25.7372 7.43476L25.7372 7.43473L25.7373 7.43469C25.8531 7.35475 25.9756 7.2703 26.0953 7.18049C26.2728 7.04735 26.4495 6.9125 26.6262 6.77766L26.6263 6.77757C26.8029 6.64276 26.9795 6.50795 27.157 6.37484C27.201 6.34304 27.2468 6.313 27.2918 6.28345L27.2919 6.28343L27.3182 6.26611L27.3448 6.24853C27.4984 6.14612 27.6554 6.14611 27.8091 6.2417C27.8944 6.29632 27.9763 6.35778 28.048 6.42947C28.8605 7.23854 29.673 8.05103 30.4821 8.8601L30.5158 8.89339C30.5499 8.92685 30.5845 8.96078 30.6152 8.99664C30.7825 9.2083 30.7961 9.39606 30.6323 9.62138C30.4137 9.92794 30.1867 10.2283 29.9596 10.5288L29.9595 10.529L29.9594 10.5291L29.9593 10.5292L29.9592 10.5293L29.9592 10.5295C29.8956 10.6136 29.832 10.6978 29.7686 10.7821C29.6896 10.8873 29.6117 10.9947 29.5331 11.1029C29.469 11.1913 29.4044 11.2803 29.3384 11.3692C29.4231 11.5876 29.5079 11.8028 29.5937 12.0208L29.5937 12.0208L29.5939 12.0214L29.5948 12.0236L29.5954 12.025L29.5958 12.0261L29.5959 12.0264L29.5963 12.0274C29.6895 12.2641 29.784 12.5042 29.8812 12.7552C29.9678 12.7697 30.0576 12.7855 30.1496 12.8018L30.1496 12.8018L30.1496 12.8018C30.3406 12.8356 30.5411 12.871 30.7415 12.8986C30.9704 12.9327 31.2003 12.9615 31.4301 12.9903C31.6151 13.0135 31.8 13.0366 31.9841 13.0625C32.3119 13.1103 32.486 13.3151 32.4894 13.6667C32.4939 14.1855 32.4924 14.7028 32.4909 15.2205C32.4901 15.4796 32.4894 15.7388 32.4894 15.9984C32.4894 16.1258 32.4898 16.2533 32.4901 16.3807C32.4909 16.6356 32.4917 16.8905 32.4894 17.1454C32.486 17.5653 32.3153 17.7428 31.909 17.8009C31.456 17.8652 31.0031 17.9379 30.5489 18.0108H30.5489H30.5489H30.5489H30.5489H30.5488H30.5488H30.5488L30.5476 18.011L30.5464 18.0112C30.3511 18.0425 30.1556 18.0739 29.9598 18.1047C29.9421 18.1072 29.9263 18.1172 29.9096 18.1278L29.9 18.1338L29.8915 18.1388L29.7426 18.5C29.6134 18.8138 29.4813 19.1348 29.3384 19.477C29.3815 19.5375 29.4261 19.6015 29.4721 19.6677L29.4722 19.6678L29.4723 19.6679L29.4724 19.6681L29.4725 19.6683L29.4727 19.6685L29.4727 19.6685L29.4728 19.6686L29.4728 19.6686C29.5617 19.7963 29.6561 19.9317 29.7549 20.0642C29.8846 20.2366 30.0151 20.4081 30.1457 20.5795C30.2763 20.7511 30.4069 20.9227 30.5367 21.0952C30.5811 21.1566 30.622 21.2215 30.663 21.2864C30.7654 21.44 30.7654 21.6004 30.6698 21.7507C30.6084 21.8462 30.5367 21.935 30.4547 22.0135C29.6627 22.8089 28.8707 23.6009 28.0753 24.3929C28.0597 24.4086 28.0443 24.4245 28.029 24.4403C27.9908 24.4799 27.9529 24.5193 27.9115 24.5534C27.6998 24.7206 27.5155 24.7343 27.2867 24.5704C26.9801 24.3518 26.6797 24.1248 26.379 23.8976L26.3789 23.8976L26.3789 23.8975L26.3788 23.8975L26.3787 23.8974L26.3787 23.8974L26.3786 23.8973L26.3785 23.8973C26.2944 23.8337 26.2103 23.7702 26.126 23.7068C25.9907 23.6052 25.8519 23.5054 25.7121 23.4049L25.7116 23.4045L25.7115 23.4044C25.654 23.3631 25.5964 23.3217 25.5389 23.28C25.0814 23.461 24.6376 23.6351 24.1529 23.8228C24.1384 23.9094 24.1226 23.9992 24.1063 24.0912L24.1063 24.0912L24.1063 24.0912V24.0912L24.1063 24.0913L24.1063 24.0913C24.0725 24.2823 24.0371 24.4827 24.0095 24.6831C23.9749 24.9158 23.9457 25.1486 23.9164 25.3819C23.8937 25.5627 23.8709 25.7439 23.8456 25.9257C23.7978 26.25 23.593 26.4276 23.238 26.431C22.6602 26.4332 22.0825 26.4325 21.5048 26.4317H21.5037C21.2147 26.4313 20.9257 26.431 20.6366 26.431C20.5388 26.431 20.4409 26.4313 20.343 26.4317H20.3427C20.1471 26.4325 19.9515 26.4332 19.7559 26.431C19.336 26.4241 19.1619 26.2569 19.1004 25.8506C19.0346 25.3874 18.9601 24.9243 18.8855 24.4611C18.8557 24.2757 18.8259 24.0902 18.7966 23.9048C18.7943 23.8885 18.7857 23.8739 18.7761 23.8576C18.7716 23.8499 18.7668 23.8418 18.7625 23.8331C18.3357 23.659 17.9022 23.4814 17.4242 23.2834L17.3187 23.3569L17.3186 23.357C17.1655 23.4634 17.0002 23.5783 16.8371 23.6999C16.6649 23.8295 16.4936 23.9599 16.3223 24.0903L16.3217 24.0907L16.3214 24.0909C16.1499 24.2215 15.9784 24.352 15.8061 24.4817C15.7447 24.526 15.6799 24.567 15.6151 24.6079L15.6151 24.6079L15.6149 24.608C15.4613 24.7104 15.3008 24.7104 15.1506 24.6148C15.0551 24.5534 14.9663 24.4817 14.8878 24.3997C14.0924 23.6077 13.3004 22.8158 12.5084 22.0203C12.4928 22.0047 12.4769 21.9894 12.4611 21.9742L12.4609 21.974L12.4608 21.9739C12.4213 21.9358 12.382 21.8979 12.3479 21.8565C12.1806 21.6448 12.167 21.4605 12.3308 21.2317C12.5159 20.9726 12.7057 20.7182 12.8959 20.4632L12.896 20.4632L12.8961 20.463L12.8963 20.4627L12.8965 20.4625L12.8966 20.4623L12.8968 20.462L12.897 20.4618C12.9871 20.341 13.0773 20.22 13.1672 20.0984C13.2582 19.9743 13.3491 19.8516 13.4408 19.7278L13.4409 19.7277L13.441 19.7276L13.4417 19.7265L13.4425 19.7255L13.4443 19.7231C13.5029 19.644 13.5618 19.5645 13.6213 19.4839C13.4594 19.0746 13.303 18.6735 13.1373 18.2489L13.0785 18.0979C12.9919 18.0834 12.9021 18.0676 12.81 18.0513L12.8098 18.0513C12.6189 18.0175 12.4185 17.9821 12.2182 17.9545C11.9894 17.9204 11.7596 17.8916 11.5299 17.8629L11.5296 17.8628L11.5295 17.8628C11.3446 17.8397 11.1597 17.8165 10.9756 17.7906C10.6478 17.7428 10.4737 17.538 10.4703 17.183C10.468 16.6301 10.4688 16.0787 10.4696 15.5268C10.4699 15.2506 10.4703 14.9744 10.4703 14.6977C10.4703 14.5873 10.4699 14.4769 10.4696 14.3666V14.3664C10.4688 14.1457 10.468 13.925 10.4703 13.7043C10.4737 13.2844 10.6444 13.1103 11.0507 13.0488C11.5037 12.9844 11.9568 12.9117 12.411 12.8389L12.4115 12.8388C12.6074 12.8073 12.8035 12.7759 12.9999 12.745C13.0176 12.7425 13.0334 12.7325 13.0501 12.722L13.0579 12.7171L13.0682 12.7109C13.1363 12.5458 13.2045 12.3802 13.2738 12.2118L13.2748 12.2093L13.2753 12.2082C13.386 11.9389 13.4998 11.6624 13.6213 11.3692C13.5782 11.3088 13.5336 11.2448 13.4876 11.1787C13.3984 11.0507 13.3038 10.9149 13.2048 10.7821C13.0751 10.6097 12.9445 10.4382 12.8139 10.2666C12.6833 10.0951 12.5527 9.92351 12.423 9.7511C12.3912 9.70708 12.3612 9.66131 12.3316 9.6163L12.3315 9.61612L12.2967 9.56335C12.1943 9.40973 12.1943 9.25267 12.2899 9.09905C12.3445 9.01371 12.4059 8.9318 12.4776 8.86352C13.2867 8.05103 14.0992 7.23854 14.9117 6.42947L14.9449 6.39583L14.9449 6.39581C14.9784 6.36169 15.0123 6.32708 15.0482 6.29633C15.2599 6.12905 15.4442 6.1154 15.673 6.27926C15.9321 6.46439 16.1866 6.65421 16.4417 6.84449L16.4417 6.84451L16.4417 6.84454L16.4418 6.84456L16.4418 6.84458L16.4418 6.84461L16.4419 6.84463L16.4419 6.84465C16.5631 6.93503 16.6843 7.02551 16.8063 7.11563C16.9301 7.2064 17.0527 7.29718 17.1762 7.38871L17.1768 7.38918L17.1769 7.38923C17.2576 7.44899 17.3387 7.50906 17.4208 7.56967C17.8276 7.4088 18.2262 7.25333 18.6479 7.08886L18.6484 7.08869L18.6486 7.08862L18.6488 7.08853L18.8068 7.02689C18.8234 6.9276 18.8418 6.82403 18.8608 6.71779L18.861 6.71623L18.861 6.71618L18.8611 6.71611C18.8928 6.53794 18.9259 6.35227 18.9536 6.1666C18.9882 5.93398 19.0174 5.70136 19.0467 5.46813L19.0467 5.46792L19.0467 5.46787L19.0467 5.46782L19.0467 5.46777L19.0467 5.46772L19.0467 5.46767L19.0467 5.46762L19.0468 5.46757C19.0694 5.28683 19.0922 5.10572 19.1175 4.92397C19.1653 4.59624 19.3701 4.42215 19.7217 4.41873C20.0356 4.41419 20.3494 4.4157 20.6642 4.41721C20.822 4.41797 20.98 4.41873 21.1385 4.41873C21.3685 4.41873 21.5981 4.41835 21.8275 4.41797C22.2861 4.41722 22.7442 4.41646 23.2038 4.41873C23.6237 4.42215 23.8012 4.59284 23.8593 4.99909C23.908 5.32093 23.9583 5.642 24.0084 5.96119C24.0634 6.31236 24.1181 6.66126 24.1699 7.00641ZM29.5945 9.41314L27.5291 7.34779C27.4234 7.42816 27.3084 7.51377 27.1908 7.60137C27.1186 7.65517 27.0454 7.70971 26.9727 7.76426C26.8789 7.83509 26.7853 7.90619 26.6918 7.97726L26.6918 7.97729L26.6918 7.97732L26.6917 7.97735L26.6917 7.97738L26.6916 7.97742L26.6916 7.97745L26.6916 7.97748C26.4517 8.1598 26.2121 8.34192 25.969 8.51872C25.7505 8.67917 25.5286 8.72355 25.2692 8.5631C25.0324 8.41927 24.7747 8.31225 24.5166 8.20512L24.5166 8.2051L24.4089 8.16026C24.2331 8.08723 24.053 8.02921 23.872 7.97091L23.872 7.97089L23.8719 7.97088L23.8719 7.97086L23.8718 7.97084L23.8717 7.97083L23.8717 7.97081C23.8244 7.95556 23.7769 7.94029 23.7295 7.92472C23.4394 7.82914 23.2653 7.66867 23.238 7.3307C23.2007 6.89952 23.1344 6.47042 23.0681 6.04177C23.0494 5.92063 23.0307 5.79953 23.0126 5.67843C23.0029 5.6102 22.974 5.54546 22.9484 5.48791C22.9381 5.46483 22.9283 5.44291 22.9205 5.42239H20.0529L20.0155 5.69612L20.0155 5.69657L20.0154 5.69679C19.9708 6.02494 19.9269 6.34773 19.8788 6.66842C19.8587 6.80207 19.8354 6.93572 19.812 7.06977C19.7876 7.20965 19.7631 7.34996 19.7422 7.49116C19.7013 7.73696 19.5408 7.84962 19.3155 7.92472C18.9434 8.05103 18.5781 8.18757 18.2162 8.33436C18.1023 8.38128 17.9927 8.4399 17.8828 8.49873L17.8828 8.49874L17.8827 8.49878C17.8247 8.52982 17.7665 8.56093 17.7076 8.5904C17.4857 8.69964 17.2774 8.70648 17.0726 8.53579C16.9484 8.43227 16.8164 8.33651 16.6851 8.24118L16.6851 8.24117L16.685 8.24112L16.6844 8.24069C16.621 8.19471 16.5578 8.14883 16.4957 8.10223C16.2785 7.93988 16.06 7.77753 15.8459 7.61841L15.8455 7.6181L15.8423 7.61572C15.7109 7.51812 15.5812 7.42173 15.4545 7.32731C15.1226 7.6543 14.7969 7.97586 14.4741 8.29459L14.474 8.29467L14.474 8.29475L14.4706 8.29806C14.1172 8.64697 13.7673 8.9925 13.4164 9.33802C13.4096 9.34485 13.4062 9.35851 13.4028 9.37217L13.4028 9.37217C13.4002 9.38257 13.4015 9.39098 13.4023 9.39591C13.4026 9.39745 13.4028 9.39865 13.4028 9.39947C13.5279 9.56701 13.6513 9.73454 13.7742 9.90153L13.7742 9.90156L13.7743 9.90159L13.7743 9.90162L13.7743 9.90166L13.7743 9.90169L13.7744 9.90172L13.7744 9.90175L13.7744 9.90182L13.7745 9.9019L13.7746 9.9021L13.7748 9.90228C14.0375 10.259 14.2984 10.6133 14.5703 10.9596C14.7615 11.2054 14.7649 11.4239 14.6317 11.6936C14.4725 12.0059 14.3325 12.3293 14.192 12.6538L14.1436 12.7655C14.1111 12.8406 14.0872 12.9191 14.0633 12.9976C14.0395 13.0762 14.0156 13.1547 13.9831 13.2298C13.8978 13.4278 13.7954 13.6258 13.5462 13.6633C13.2608 13.7051 12.9744 13.746 12.6876 13.7869L12.6871 13.787L12.6869 13.787L12.6867 13.787L12.6865 13.787L12.6863 13.7871L12.6856 13.7872C12.4344 13.823 12.1829 13.8589 11.9314 13.8955C11.831 13.9108 11.7319 13.9316 11.636 13.9518L11.636 13.9518L11.636 13.9519L11.6359 13.9519L11.6359 13.9519L11.6359 13.9519L11.6359 13.9519L11.6359 13.9519C11.5819 13.9632 11.529 13.9744 11.4774 13.9842V16.8655C11.5123 16.8748 11.5464 16.8853 11.5799 16.8956L11.58 16.8956C11.6449 16.9156 11.708 16.935 11.771 16.944C12.3342 17.0259 12.8975 17.1045 13.4608 17.1796C13.7134 17.2137 13.8909 17.3468 13.9558 17.5926C14.1026 18.1593 14.345 18.6885 14.6181 19.2039C14.7615 19.4736 14.7239 19.7092 14.5464 19.9413C14.444 20.071 14.345 20.2008 14.246 20.3339C13.9561 20.7193 13.6696 21.1047 13.3831 21.4901L13.3823 21.4912C13.8944 22.0681 15.2019 23.3517 15.4647 23.5326C15.593 23.4375 15.7218 23.3426 15.8509 23.2475L15.851 23.2475C16.2408 22.9604 16.6325 22.672 17.0146 22.3719C17.2501 22.1876 17.4754 22.1774 17.7212 22.3071C18.247 22.587 18.7932 22.8192 19.3667 22.9898C19.5784 23.0547 19.7115 23.1844 19.7388 23.42C19.7832 23.7851 19.8378 24.1468 19.8924 24.5085L19.8924 24.5086L19.8924 24.509C19.9251 24.7217 19.9611 24.9328 19.9969 25.1433L19.9971 25.1445C20.0135 25.2411 20.03 25.3376 20.046 25.4341H22.9375C22.9481 25.3919 22.9597 25.3517 22.9709 25.3127C22.9887 25.251 23.0056 25.1923 23.0161 25.1337C23.0376 24.9897 23.0606 24.846 23.0836 24.7023L23.0837 24.7021L23.0837 24.7021C23.1447 24.3212 23.2057 23.9407 23.238 23.5565C23.2687 23.1879 23.4564 23.0172 23.7842 22.9284C24.3099 22.785 24.8083 22.5665 25.2862 22.3037C25.5013 22.1876 25.7198 22.1705 25.928 22.3344C25.967 22.3655 26.0092 22.3945 26.051 22.4231L26.051 22.4231C26.0825 22.4446 26.1138 22.466 26.1431 22.488C26.4433 22.7115 26.7421 22.9364 27.0331 23.1555L27.0336 23.1558L27.0367 23.1582C27.1979 23.2795 27.3567 23.3991 27.512 23.5156L29.5842 21.4434C29.5741 21.4299 29.5475 21.39 29.5206 21.3496L29.5202 21.3491L29.5201 21.3489L29.5194 21.3478L29.2844 21.0327L29.2842 21.0324C28.9913 20.6393 28.6986 20.2466 28.3996 19.856C28.2494 19.658 28.2426 19.4463 28.3518 19.2483C28.6488 18.726 28.8605 18.173 29.0346 17.6063C29.1165 17.3366 29.2804 17.2103 29.5467 17.1761C30.0963 17.1044 30.6493 17.0259 31.1989 16.944C31.2773 16.9318 31.3521 16.9072 31.4222 16.8842L31.4223 16.8842L31.4223 16.8842L31.4223 16.8842L31.4224 16.8842C31.4499 16.8752 31.4768 16.8664 31.5028 16.8587V13.9808C31.2764 13.9485 31.0535 13.9149 30.8322 13.8816L30.8317 13.8815L30.829 13.8811C30.6776 13.8583 30.5269 13.8357 30.3762 13.8135C30.2887 13.801 30.2011 13.7874 30.1135 13.7737L30.1133 13.7737C29.9381 13.7464 29.7629 13.7191 29.5876 13.7009C29.2702 13.6667 29.0926 13.4961 29.0073 13.1922C28.8707 12.6904 28.6693 12.209 28.4133 11.7584C28.2324 11.4409 28.2597 11.1747 28.4884 10.8879C28.7779 10.5299 29.0503 10.1568 29.3184 9.78961L29.3186 9.78932L29.3192 9.78858C29.4113 9.66244 29.5029 9.53701 29.5945 9.41314ZM26.0743 15.4522C26.0094 17.9955 24.0533 20.0301 21.4383 19.996C18.878 19.9618 16.9219 17.9852 16.9219 15.4214C16.9219 12.844 18.9292 10.8606 21.4896 10.8572C24.0602 10.8538 26.0367 12.8748 26.0743 15.4522ZM25.0843 15.4283C25.0877 13.4483 23.4798 11.8369 21.51 11.8335C19.4993 11.8301 17.9051 13.4278 17.8948 15.4249C17.888 17.398 19.4925 19.0094 21.4657 19.0196C23.4661 19.0333 25.0877 17.4083 25.0843 15.4283ZM8.91395 3.68476C8.8395 3.64641 8.76803 3.61477 8.70114 3.58515C8.56561 3.52514 8.44889 3.47347 8.36432 3.39118C7.67132 2.71866 6.98856 2.0359 6.31604 1.3429C6.00538 1.022 6.00538 0.64648 6.27849 0.363134C6.56183 0.0695466 6.95101 0.0729588 7.28897 0.404098C7.39917 0.512078 7.50963 0.619787 7.62009 0.72749L7.6201 0.727501L7.6201 0.727507L7.62011 0.72751C8.19061 1.28379 8.76091 1.83987 9.29288 2.4319C9.44991 2.60601 9.49771 2.97469 9.44309 3.21707C9.41247 3.34424 9.26491 3.44216 9.11244 3.54334C9.04387 3.58883 8.97431 3.63499 8.91395 3.68476ZM36.3897 0.217279L36.3896 0.217244C36.3248 0.174184 36.2592 0.130635 36.2002 0.0831783C36.128 0.120365 36.06 0.150856 35.9971 0.179071L35.9971 0.179077L35.997 0.179083L35.997 0.179088L35.997 0.179093C35.8693 0.236347 35.7624 0.284236 35.6847 0.359696C34.9712 1.0527 34.2645 1.75594 33.575 2.46943C33.3053 2.74936 33.3155 3.08049 33.5613 3.38091C33.7832 3.6506 34.1963 3.71206 34.466 3.45602C35.2272 2.7323 35.9749 1.98809 36.6883 1.21657C36.8112 1.08343 36.8147 0.728394 36.7327 0.537221C36.6761 0.407483 36.5347 0.3136 36.3897 0.217285L36.3897 0.217279ZM9.49441 28.3188L9.4944 28.3188C9.41997 28.4633 9.35647 28.5866 9.26566 28.6841C8.62728 29.3464 7.97183 29.9984 7.31296 30.6436C6.96816 30.9816 6.54485 30.985 6.26492 30.6846C5.99523 30.391 6.01913 30.0189 6.3571 29.6775C6.49278 29.5404 6.62804 29.4027 6.7633 29.265L6.76332 29.265L6.76333 29.265C7.28487 28.7341 7.8066 28.2031 8.35417 27.7043C8.52486 27.5507 8.87307 27.4756 9.09497 27.5302C9.23317 27.563 9.34245 27.7051 9.46029 27.8583C9.51418 27.9284 9.56987 28.0008 9.63094 28.0662C9.57819 28.1561 9.5347 28.2405 9.49441 28.3188ZM36.78 30.4503C36.8185 30.3895 36.8565 30.3298 36.8966 30.2784C36.8653 30.208 36.841 30.1439 36.8191 30.0861L36.819 30.086C36.7739 29.9671 36.739 29.875 36.6747 29.8107C35.951 29.0699 35.2204 28.3291 34.4694 27.6122C34.2031 27.3595 33.8719 27.3868 33.5988 27.6429C33.3257 27.8989 33.2711 28.2506 33.5135 28.51C34.2406 29.2883 34.9985 30.0428 35.7837 30.7665C35.9168 30.8894 36.2753 30.8826 36.4664 30.7973C36.5976 30.7376 36.6905 30.5913 36.78 30.4503ZM2.14399 16.2134C2.01048 16.2134 1.87696 16.214 1.74337 16.2145H1.74317C1.40886 16.2159 1.07406 16.2173 0.737506 16.21C0.273228 16.1998 -0.00670552 15.9301 0.000122095 15.5238C0.00694971 15.1278 0.266401 14.8718 0.717024 14.865C1.68313 14.8547 2.64924 14.8547 3.61534 14.865C4.04207 14.8718 4.32543 15.1688 4.3186 15.5443C4.31177 15.9232 4.02501 16.1963 3.59146 16.2066C3.24126 16.219 2.88924 16.217 2.53806 16.2149H2.53799C2.40649 16.2142 2.27512 16.2134 2.14399 16.2134ZM40.3434 16.2146C40.477 16.214 40.6105 16.2135 40.744 16.2135C40.8751 16.2135 41.0064 16.2142 41.1379 16.215C41.4893 16.217 41.8421 16.219 42.1949 16.2066C42.6319 16.1964 42.905 15.9335 42.9118 15.5443C42.9186 15.1483 42.6558 14.8718 42.2154 14.865C41.2493 14.8513 40.2832 14.8548 39.3171 14.865C38.8801 14.8684 38.5967 15.1483 38.5899 15.5239C38.5865 15.9199 38.8801 16.1998 39.3375 16.21C39.6741 16.2174 40.009 16.216 40.3434 16.2146Z" fill="black"/>
</svg>
