<svg width="45" height="40" viewBox="0 0 45 40" fill="none" xmlns="http://www.w3.org/2000/svg">
<path fill-rule="evenodd" clip-rule="evenodd" d="M43.2999 16.7538L43.3004 16.7531L43.3081 16.7429L43.3413 16.6994C43.3983 16.6245 43.4567 16.5475 43.5246 16.4824C43.7885 16.2287 44.1031 16.205 44.3501 16.4012C44.5632 16.5704 44.7256 16.8918 44.4956 17.2538C44.3731 17.4497 44.2287 17.6326 44.0836 17.8163L44.0831 17.8169C44.048 17.8614 44.0128 17.9059 43.978 17.9507C43.6978 18.3118 43.4169 18.672 43.1359 19.0323L43.1338 19.035C42.8522 19.3961 42.5706 19.7572 42.2899 20.1191C42.2696 20.1462 42.2493 20.1699 42.229 20.1936C41.8873 20.674 41.461 20.6063 41.1092 20.3323C40.5687 19.9078 40.024 19.4918 39.4797 19.076L39.4794 19.0759C39.1822 18.8489 38.8851 18.622 38.5889 18.3938C38.542 18.3574 38.4939 18.3222 38.4458 18.2871C38.3375 18.208 38.2292 18.1289 38.1356 18.0352C37.7905 17.6868 37.9292 17.1489 38.3893 16.9899C38.599 16.9188 38.7749 16.9899 38.9339 17.1015C39.208 17.2977 39.4752 17.5041 39.7425 17.7105C39.9082 17.8373 40.0732 17.9659 40.2381 18.0944C40.403 18.223 40.5679 18.3515 40.7337 18.4784C40.7757 18.5106 40.825 18.5319 40.8829 18.5569C40.9042 18.5661 40.9266 18.5758 40.9502 18.5867C40.7506 16.134 40.1247 13.837 39.0422 11.6685C38.3859 10.3559 37.5875 9.138 36.6437 8.01146C34.7932 5.80576 32.557 4.1075 29.9352 2.93022C28.6328 2.34497 27.2796 1.91194 25.8723 1.65483C25.0502 1.50598 24.2315 1.36729 23.3959 1.35376C23.188 1.35103 22.98 1.33667 22.7723 1.32233C22.4664 1.30121 22.1609 1.28012 21.8567 1.29624C20.6895 1.35375 19.5292 1.4654 18.379 1.71574C16.6604 2.08787 15.0298 2.6765 13.4804 3.50533C12.3302 4.12103 11.2544 4.845 10.2564 5.69074C8.67318 7.03379 7.33014 8.57642 6.25773 10.3593C5.45935 11.6854 4.84703 13.0893 4.38694 14.5609C4.37364 14.6037 4.36114 14.647 4.34861 14.6903L4.34861 14.6904C4.31654 14.8014 4.28431 14.913 4.23809 15.0176C4.09262 15.3457 3.79831 15.4709 3.49046 15.3458C3.14539 15.2071 3.00331 14.933 3.09803 14.588C3.76448 12.1488 4.86733 9.92285 6.39982 7.90659C7.07303 7.02025 7.80375 6.18465 8.61567 5.42348C9.74558 4.3646 10.9804 3.44781 12.3234 2.66973C13.5345 1.96945 14.7998 1.39436 16.136 0.971484C17.2355 0.623037 18.3519 0.369318 19.492 0.193403C20.9027 -0.026491 22.3167 -0.0298781 23.7274 0.0411645C24.6848 0.0885262 25.6321 0.247513 26.5759 0.450492C28.5177 0.866598 30.3446 1.58381 32.0766 2.54119C33.1321 3.12306 34.1436 3.78951 35.0469 4.59128C35.7438 5.21036 36.4339 5.84635 37.0733 6.52633C38.4569 8.00131 39.5429 9.68603 40.4022 11.5162C41.1126 13.0284 41.6133 14.6116 41.9346 16.249C42.0118 16.6575 42.0631 17.0706 42.1181 17.5137L42.1182 17.5144C42.1452 17.7316 42.173 17.9561 42.2053 18.1908C42.608 17.6606 42.9542 17.2069 43.2999 16.7538ZM27.1094 9.88659C26.6225 9.68528 26.1641 9.49579 25.6826 9.29704C25.651 9.09202 25.6187 8.88597 25.5862 8.6789L25.5862 8.67874L25.5862 8.67861C25.4869 8.04523 25.3862 7.40223 25.297 6.74964C25.2226 6.23543 24.9993 6.01892 24.4682 6.01554C23.8864 6.01329 23.3062 6.01404 22.7254 6.01479C22.4349 6.01517 22.1442 6.01554 21.8531 6.01554C21.7046 6.01554 21.556 6.01533 21.4072 6.01512H21.4069H21.4066H21.4065H21.4065C20.9589 6.01449 20.5102 6.01385 20.0635 6.01893C19.617 6.02231 19.3531 6.24559 19.2956 6.65832C19.2584 6.91881 19.2245 7.18099 19.1907 7.44317C19.1569 7.70535 19.123 7.96753 19.0858 8.22802C19.0475 8.49381 19.0007 8.75958 18.9563 9.01217L18.9563 9.01222C18.9379 9.11648 18.92 9.21849 18.9031 9.31733C18.2908 9.55752 17.7293 9.77743 17.1474 10.0041C16.8835 9.80787 16.6264 9.61842 16.3693 9.42898C16.2068 9.3091 16.0446 9.18804 15.8824 9.06687L15.8821 9.0667L15.8819 9.06652C15.5681 8.8322 15.2537 8.59748 14.9349 8.3701C14.644 8.16712 14.4106 8.18404 14.1433 8.39379C14.0998 8.43 14.0598 8.47138 14.0196 8.51302C14.0034 8.52972 13.9872 8.54647 13.9708 8.56293C13.4583 9.07711 12.945 9.59044 12.4316 10.1038C11.9182 10.6172 11.4048 11.1306 10.8923 11.6448C10.8043 11.7362 10.7231 11.8377 10.6554 11.9459C10.5337 12.1387 10.5303 12.3417 10.6622 12.5345C10.677 12.5568 10.6916 12.579 10.7061 12.6012L10.7061 12.6012L10.7061 12.6012C10.7447 12.66 10.7828 12.7183 10.8246 12.7747C10.9248 12.9067 11.0251 13.0384 11.1252 13.1699L11.1254 13.1701C11.3564 13.4735 11.5869 13.7762 11.8158 14.0806C11.9705 14.2877 12.1184 14.4994 12.254 14.6935L12.3436 14.8214C12.2184 15.1226 12.0999 15.4102 11.9845 15.6906L11.9841 15.6914C11.8688 15.9714 11.7565 16.2443 11.6433 16.5163C11.6325 16.5211 11.6222 16.5271 11.612 16.5331C11.5933 16.544 11.575 16.5547 11.5553 16.5569L11.1455 16.6229L11.1454 16.6229L11.1453 16.6229C10.4599 16.7334 9.77453 16.8438 9.08913 16.9426C8.57492 17.017 8.36178 17.2403 8.35502 17.7714C8.35276 18.0511 8.35352 18.3307 8.35427 18.6104C8.35464 18.7502 8.35502 18.89 8.35502 19.0299C8.35502 19.2919 8.35481 19.554 8.3546 19.8161C8.35396 20.6027 8.35333 21.3894 8.35841 22.176C8.36179 22.6226 8.58506 22.8865 8.99778 22.944C9.26227 22.9818 9.52762 23.0161 9.79341 23.0504L9.7938 23.0505L9.79397 23.0505L9.79406 23.0505C10.0516 23.0838 10.3095 23.1171 10.5675 23.1537C10.8333 23.192 11.0991 23.2388 11.3516 23.2833L11.3518 23.2833L11.3518 23.2833C11.456 23.3017 11.558 23.3196 11.6568 23.3364C11.7947 23.693 11.9281 24.0324 12.0601 24.3686L12.0602 24.3689C12.1549 24.6099 12.2489 24.8493 12.3436 25.0922C12.1473 25.356 11.9579 25.6131 11.7684 25.8703C11.6485 26.0329 11.5273 26.1952 11.406 26.3576L11.4059 26.3577L11.4059 26.3578C11.1716 26.6716 10.9369 26.9859 10.7096 27.3046C10.5032 27.5956 10.5201 27.829 10.7299 28.0963C10.7725 28.1484 10.8219 28.1956 10.8708 28.2424C10.8918 28.2624 10.9126 28.2824 10.9328 28.3026L10.9396 28.3094C11.9421 29.3119 12.9446 30.3144 13.9471 31.3135C14.0486 31.415 14.1636 31.5063 14.282 31.5841C14.4748 31.7093 14.6744 31.7059 14.8706 31.5773C14.8928 31.5626 14.9149 31.5481 14.9369 31.5336L14.9372 31.5334C14.996 31.4949 15.0543 31.4567 15.1108 31.415C15.2423 31.3151 15.3734 31.2153 15.5044 31.1155L15.5052 31.1149C15.8089 30.8836 16.112 30.6529 16.4167 30.4237C16.5752 30.3054 16.7377 30.1923 16.8926 30.0845L16.8927 30.0844C16.9857 30.0197 17.0759 29.9569 17.1609 29.896C17.3747 29.9837 17.5817 30.0684 17.784 30.1512L17.7868 30.1523L17.7868 30.1523L17.789 30.1532C18.1546 30.3028 18.5049 30.4462 18.8524 30.5895C18.8579 30.6006 18.8642 30.6109 18.8702 30.6209C18.8826 30.6414 18.8941 30.6604 18.8964 30.6809L18.9534 31.0336L18.9534 31.0338C19.0668 31.7356 19.1806 32.4396 19.282 33.1437C19.3565 33.6579 19.5797 33.871 20.1109 33.8778C20.3586 33.88 20.6048 33.8793 20.8515 33.8785H20.8519H20.8523L20.8556 33.8785C20.9781 33.8781 21.1008 33.8778 21.2239 33.8778C21.4984 33.8778 21.7732 33.878 22.048 33.8782H22.0493C22.8714 33.8788 23.6944 33.8795 24.5155 33.8744C24.9621 33.871 25.2259 33.6477 25.2835 33.235C25.3207 32.9745 25.3545 32.7123 25.3883 32.4501C25.4222 32.1879 25.456 31.9258 25.4932 31.6653C25.5315 31.3995 25.5783 31.1338 25.6227 30.8812L25.6229 30.8805L25.6232 30.8787C25.6414 30.7753 25.6592 30.6741 25.6759 30.576C26.1408 30.3936 26.5765 30.2229 27.0125 30.0521L27.0156 30.0509L27.4283 29.8892L27.632 30.0378C27.8128 30.1696 27.9919 30.3 28.1691 30.4305C28.3185 30.5418 28.4673 30.6537 28.616 30.7655C28.9556 31.021 29.2949 31.2762 29.6407 31.5232C29.9317 31.7296 30.1617 31.7127 30.4323 31.5029C30.489 31.4586 30.5385 31.407 30.5874 31.3561L30.5875 31.356C30.6057 31.3371 30.6238 31.3183 30.6421 31.2999C31.6468 30.2986 32.6516 29.2938 33.6529 28.2891C33.7544 28.1876 33.8458 28.0726 33.9236 27.9542C34.0487 27.7613 34.0454 27.5617 33.9168 27.3655C33.902 27.3434 33.8875 27.3212 33.873 27.2991C33.8345 27.2403 33.7962 27.1819 33.7544 27.1253C33.6541 26.9933 33.5539 26.8617 33.4537 26.7301L33.4535 26.7298L33.4533 26.7296C33.2224 26.4263 32.992 26.1238 32.7632 25.8195C32.6085 25.6123 32.4605 25.4006 32.3249 25.2064L32.2355 25.0786C32.3606 24.7777 32.479 24.4902 32.5944 24.2099C32.7099 23.9294 32.8224 23.6562 32.9358 23.3838C32.9432 23.3805 32.9504 23.3766 32.9575 23.3725C32.9607 23.3707 32.9638 23.3689 32.967 23.367C32.9857 23.3561 33.004 23.3454 33.0237 23.3432L33.435 23.277C34.12 23.1666 34.8049 23.0562 35.4899 22.9575C36.0041 22.8831 36.2172 22.6598 36.224 22.1287C36.2263 21.8062 36.2255 21.4837 36.2248 21.1611C36.2244 20.9999 36.224 20.8386 36.224 20.6774C36.224 20.4326 36.2242 20.1876 36.2244 19.9424V19.9419V19.9409C36.2251 19.204 36.2257 18.4657 36.2206 17.7274C36.2172 17.2809 35.994 17.017 35.5812 16.9595C35.3166 16.9217 35.0512 16.8874 34.7852 16.853C34.5276 16.8197 34.2696 16.7864 34.0115 16.7498C33.7458 16.7114 33.4801 16.6647 33.2276 16.6202L33.2275 16.6202C33.1232 16.6018 33.0211 16.5839 32.9222 16.5671C32.7441 16.1129 32.5771 15.6866 32.4102 15.2607L32.4013 15.2379L32.2355 14.8147C32.2936 14.735 32.3511 14.6557 32.4083 14.5767L32.4086 14.5763C32.531 14.4072 32.6523 14.2397 32.7767 14.0738C32.8879 13.9245 32.9998 13.7759 33.1116 13.6272L33.1117 13.6271C33.3671 13.2875 33.6224 12.9481 33.8695 12.6022C34.0758 12.3147 34.0555 12.0778 33.8458 11.8106C33.8096 11.7671 33.7682 11.7271 33.7266 11.6869L33.7266 11.6869L33.7265 11.6869L33.7049 11.6659C33.6954 11.6567 33.686 11.6474 33.6766 11.6381C32.6482 10.6096 31.6232 9.58459 30.5947 8.55955C30.5034 8.46821 30.4019 8.3904 30.2936 8.32274C30.1008 8.20095 29.8978 8.20096 29.705 8.3329C29.6828 8.34771 29.6606 8.36226 29.6384 8.37678L29.6384 8.3768L29.6383 8.37683C29.5796 8.41534 29.5213 8.45352 29.4648 8.49527L29.4634 8.49633L29.4633 8.49639L29.4633 8.49646C29.0172 8.83774 28.5712 9.17903 28.1218 9.51694C27.9456 9.65095 27.7639 9.77586 27.5955 9.89166C27.5343 9.93372 27.4749 9.97457 27.4181 10.0142L27.1094 9.88659ZM32.5422 12.344L32.5467 12.3485C32.4383 12.4949 32.3297 12.643 32.2204 12.7919L32.219 12.7938C31.8718 13.2668 31.518 13.7489 31.1428 14.2193C30.8552 14.5812 30.8214 14.9195 31.048 15.3221C31.3694 15.8972 31.6265 16.5028 31.7991 17.1388C31.9039 17.5278 32.1306 17.741 32.5332 17.7849C32.7579 17.8076 32.9811 17.8425 33.2038 17.8773L33.2039 17.8773C33.313 17.8944 33.4221 17.9114 33.5312 17.927C33.8437 17.9717 34.1548 18.0178 34.4693 18.0644C34.6313 18.0884 34.7943 18.1126 34.9588 18.1368V21.7802C34.9218 21.7908 34.8835 21.8033 34.8442 21.8162C34.7577 21.8446 34.6662 21.8745 34.5731 21.8885L34.5688 21.8891C33.8734 21.9904 33.1779 22.0917 32.4824 22.1828C32.1441 22.2268 31.9378 22.3858 31.8329 22.7275C31.613 23.448 31.3424 24.1483 30.9702 24.808C30.8282 25.0583 30.8383 25.3256 31.0277 25.5759C31.4208 26.0916 31.8092 26.6118 32.1968 27.131L32.4452 27.4636C32.4655 27.4913 32.4848 27.5199 32.5003 27.543L32.5005 27.5433C32.5134 27.5625 32.5237 27.5778 32.5298 27.5854L29.908 30.2072L29.4883 29.8926L29.4879 29.8923C29.059 29.5708 28.6148 29.2378 28.1725 28.9048C28.1353 28.8773 28.0976 28.8514 28.06 28.8256C28.0052 28.7881 27.9507 28.7507 27.8985 28.7086C27.638 28.4988 27.364 28.5191 27.09 28.668C26.481 28.9995 25.8518 29.2735 25.1853 29.4562C24.7692 29.5712 24.5324 29.7877 24.4918 30.2546C24.448 30.7621 24.367 31.2676 24.286 31.7727C24.2606 31.9309 24.2353 32.089 24.211 32.2472C24.1967 32.3356 24.1722 32.4207 24.146 32.5119L24.146 32.512C24.1351 32.5498 24.1238 32.5888 24.1129 32.6294H20.4526C20.4277 32.4792 20.4019 32.329 20.376 32.1785L20.3759 32.1778L20.3759 32.1775C20.3348 31.9387 20.2937 31.6995 20.2563 31.4589L20.2267 31.26C20.1684 30.8688 20.1098 30.4754 20.0635 30.0821C20.0297 29.7877 19.8639 29.622 19.5933 29.5408C18.8727 29.3209 18.1792 29.03 17.5127 28.6748C17.2015 28.5124 16.9173 28.5225 16.6196 28.7559C16.1669 29.111 15.704 29.4526 15.2418 29.7938L15.2417 29.7939L15.2416 29.794L15.2414 29.7941C15.0475 29.9372 14.8538 30.0802 14.6609 30.2241C14.3294 29.9941 12.6751 28.3703 12.0256 27.6395C12.1695 27.4471 12.314 27.2537 12.4589 27.0597L12.4597 27.0586C12.6787 26.7653 12.8985 26.4711 13.1182 26.1781C13.2434 26.0123 13.372 25.8466 13.5005 25.6808C13.7272 25.3899 13.7712 25.0922 13.5919 24.7505C13.2502 24.101 12.9423 23.4311 12.7563 22.7139C12.6751 22.4061 12.4518 22.2369 12.1304 22.193C11.4166 22.0982 10.7062 22.0001 9.99238 21.8952C9.90958 21.8841 9.82975 21.8596 9.74797 21.8344L9.74793 21.8344L9.74791 21.8344C9.70608 21.8216 9.66374 21.8086 9.62025 21.7971V18.1503C9.663 18.1412 9.70694 18.1316 9.75185 18.1218L9.7522 18.1217L9.75223 18.1217L9.75229 18.1217C9.89204 18.091 10.041 18.0583 10.192 18.0353C10.532 17.9845 10.8728 17.9363 11.2136 17.8881C11.5545 17.8399 11.8953 17.7917 12.2353 17.741C12.5533 17.6936 12.6819 17.4433 12.7901 17.1895C12.8307 17.0948 12.8612 16.995 12.8916 16.8952C12.922 16.7954 12.9525 16.6956 12.9931 16.6009C13.1893 16.1442 13.3855 15.6875 13.6088 15.2443C13.7779 14.906 13.7745 14.6286 13.531 14.3174C13.1561 13.8426 12.7979 13.3548 12.4371 12.8637L12.437 12.8635L12.4366 12.863C12.3092 12.6895 12.1815 12.5156 12.0526 12.3417L12.0525 12.3389L12.0521 12.3348C12.0513 12.3273 12.0501 12.3168 12.0526 12.3045C12.056 12.2876 12.0594 12.2707 12.0695 12.2605L12.0767 12.2534L12.0768 12.2534L12.0776 12.2526C12.924 11.4162 13.7706 10.5798 14.6474 9.71652C15.0718 10.0298 15.5164 10.3599 15.9611 10.69L15.9613 10.6902L15.9616 10.6904L15.9667 10.6942C16.0321 10.7423 16.0982 10.79 16.1645 10.8377L16.1648 10.8379L16.1648 10.838C16.3453 10.968 16.5268 11.0988 16.6974 11.2422C16.9546 11.4621 17.2184 11.452 17.4992 11.3133C17.5731 11.2763 17.6459 11.237 17.7185 11.1978L17.7185 11.1977C17.8586 11.122 17.9983 11.0465 18.1454 10.9885C18.6021 10.8058 19.0655 10.6299 19.5358 10.4709C19.8166 10.3762 20.0229 10.2341 20.0737 9.92288C20.0948 9.79629 20.1172 9.6697 20.1397 9.54294C20.1785 9.32419 20.2174 9.10494 20.2496 8.88432C20.3043 8.5203 20.354 8.15459 20.4046 7.78251L20.4046 7.78239L20.4046 7.782C20.4259 7.6252 20.4474 7.46726 20.4695 7.30784H24.0994C24.1093 7.33451 24.1218 7.3632 24.1349 7.3934L24.1349 7.39343C24.1667 7.46666 24.2025 7.54879 24.2144 7.63262C24.2374 7.78539 24.2612 7.93799 24.285 8.09055L24.2851 8.09112L24.2852 8.09157C24.3699 8.63457 24.4545 9.17687 24.502 9.7233C24.5392 10.1529 24.7591 10.3525 25.1245 10.4743C25.1836 10.4938 25.2429 10.513 25.3022 10.5322L25.3023 10.5322C25.5313 10.6064 25.7607 10.6807 25.9837 10.772L26.0717 10.8083C26.4119 10.9483 26.7551 11.0895 27.0697 11.2795C27.4012 11.4791 27.6786 11.4249 27.956 11.222C28.2381 11.0153 28.5159 10.8044 28.7931 10.5938L28.7935 10.5935C28.9383 10.4835 29.083 10.3736 29.228 10.2646L29.9317 9.73682C30.7986 10.6004 31.6488 11.4506 32.5392 12.341L32.5422 12.3439L32.5422 12.344ZM1.72406 22.5757C1.94526 22.2908 2.16816 22.0037 2.39724 21.7091C2.4135 21.8264 2.43015 21.9405 2.44653 22.0527C2.47784 22.2672 2.50812 22.4746 2.53255 22.6834C2.65772 23.8472 2.94189 24.9805 3.29034 26.0935C3.67938 27.335 4.19021 28.5225 4.81944 29.6625C5.6618 31.195 6.68347 32.5922 7.89119 33.8507C9.0414 35.0482 10.3303 36.0834 11.741 36.9697C12.9826 37.7478 14.2918 38.3771 15.6754 38.8575C16.7952 39.2465 17.9353 39.5374 19.1092 39.7303C19.8703 39.8554 20.6349 39.94 21.3994 39.9772C22.5699 40.0347 23.7438 39.984 24.911 39.8182C25.9901 39.666 27.0524 39.4461 28.0943 39.1315C29.5727 38.6849 30.98 38.0794 32.3163 37.3013C33.5714 36.5706 34.7419 35.7214 35.8075 34.737C37.3434 33.3229 38.6256 31.7024 39.6608 29.8824C40.4591 28.4785 41.0444 26.9967 41.5112 25.4609C41.5308 25.3996 41.5388 25.3336 41.5467 25.2688L41.5518 25.2274C41.5891 24.9061 41.4165 24.5982 41.0444 24.517C40.7433 24.4493 40.4456 24.6287 40.3272 24.95C40.2845 25.0704 40.2507 25.1941 40.2169 25.3179L40.2169 25.318L40.2168 25.318C40.1917 25.41 40.1666 25.502 40.1378 25.5928C39.2852 28.2992 37.8745 30.6842 35.9462 32.7613C35.0362 33.7424 34.0146 34.5983 32.9083 35.3594C31.2168 36.5232 29.3833 37.3825 27.411 37.9542C26.1931 38.3094 24.9482 38.5327 23.6863 38.6173C22.032 38.7255 20.3744 38.6579 18.7404 38.3297C17.2959 38.0388 15.8919 37.6024 14.5489 36.9867C12.6443 36.1172 10.9359 34.9569 9.41353 33.5293C8.45953 32.6362 7.62393 31.6382 6.88306 30.559C6.15234 29.5001 5.5434 28.3736 5.04272 27.1862C4.43378 25.7349 4.00076 24.2362 3.7944 22.6733C3.77247 22.506 3.74942 22.3394 3.7264 22.1728L3.72639 22.1728L3.72639 22.1728L3.72639 22.1727L3.72638 22.1727C3.69258 21.9282 3.65881 21.684 3.62864 21.4385C3.62435 21.4171 3.63772 21.3929 3.65498 21.3617L3.65499 21.3617L3.65502 21.3617C3.66499 21.3437 3.67625 21.3233 3.68615 21.2998C4.05828 21.5873 4.41349 21.8614 4.7687 22.132C4.85787 22.2004 4.94675 22.2696 5.03577 22.339L5.03582 22.339L5.03597 22.3391C5.25082 22.5065 5.46646 22.6744 5.68887 22.8323C6.08468 23.1131 6.62257 22.7748 6.62934 22.3316C6.63272 22.0001 6.43651 21.8343 6.22 21.6652C5.82819 21.3585 5.43287 21.0571 5.03783 20.756L5.03774 20.7559L5.03766 20.7558L5.03723 20.7555L5.03716 20.7555C4.88328 20.6381 4.72944 20.5209 4.57587 20.4033C4.4682 20.3214 4.36079 20.2388 4.25329 20.156L4.25293 20.1558C3.96533 19.9345 3.67709 19.7127 3.38167 19.5034C3.04338 19.2666 2.71862 19.3208 2.43783 19.6218C2.37017 19.6929 2.31266 19.7707 2.25515 19.8485C1.90183 20.3102 1.54687 20.7702 1.19141 21.2309L1.19127 21.2311L1.1906 21.2319C1.03581 21.4325 0.880926 21.6333 0.726044 21.8343L0.631396 21.9567C0.455984 22.1833 0.279996 22.4106 0.113725 22.6428C-0.0791046 22.9135 -0.0182193 23.2991 0.232121 23.5089C0.475696 23.7152 0.797083 23.6882 1.05081 23.4344C1.11733 23.3654 1.17611 23.2866 1.23447 23.2084C1.25327 23.1832 1.27203 23.1581 1.291 23.1334L1.72406 22.5757ZM22.2212 25.7382C25.5366 25.7822 28.0095 23.2044 28.0907 19.9872C28.0433 16.726 25.5433 14.1651 22.2855 14.1684C19.0446 14.1752 16.504 16.682 16.504 19.9466C16.504 23.1908 18.9803 25.6942 22.2212 25.7382ZM22.316 15.41C24.8092 15.4134 26.8424 17.4533 26.839 19.9567C26.839 22.4635 24.7923 24.517 22.2618 24.5034C19.7618 24.4899 17.732 22.45 17.7422 19.9533C17.7523 17.4262 19.772 15.4066 22.316 15.41Z" fill="black"/>
</svg>
