<svg width="32" height="40" viewBox="0 0 32 40" fill="none" xmlns="http://www.w3.org/2000/svg">
<path fill-rule="evenodd" clip-rule="evenodd" d="M2.69752 39.9935C2.61856 39.9681 2.53901 39.945 2.45958 39.922C2.27675 39.8689 2.0946 39.8161 1.92194 39.735C0.742285 39.1793 0.0644799 38.2682 0.0188577 36.9564C-0.00484481 36.2278 -0.000969919 35.4993 0.00290499 34.7708C0.0043575 34.4977 0.00581001 34.2246 0.00581001 33.9515V7.83198C0.00581001 6.11308 1.03555 4.84007 2.67143 4.57513C2.95135 4.53108 3.23734 4.53207 3.52526 4.53307C3.65967 4.53354 3.7945 4.534 3.92933 4.52989C4.05631 4.52569 4.18328 4.52695 4.32453 4.52834L4.32464 4.52835C4.40086 4.5291 4.48124 4.52989 4.56803 4.52989V3.3409C4.57455 1.31182 5.8976 0.00646834 7.9506 0.00646834C9.11177 0.00646834 10.2729 0.00687143 11.4341 0.00727452C14.9199 0.00848457 18.4057 0.00969463 21.8915 0C22.3477 0 22.6866 0.142179 23.0059 0.458819C25.8475 3.28919 28.6956 6.11309 31.5503 8.937C31.8566 9.24072 32 9.57026 32 10.0097C31.9935 17.3637 31.9935 24.7177 31.9935 32.0717V32.1874C31.9935 33.7253 31.0876 34.9596 29.6668 35.3344C29.3539 35.4184 29.0216 35.4378 28.6957 35.4507C28.4098 35.4644 28.124 35.462 27.8197 35.4594C27.6938 35.4583 27.5648 35.4572 27.4313 35.4572V36.6785C27.4248 38.3845 26.5188 39.5283 24.8504 39.9418C24.8243 39.9461 24.804 39.9619 24.7837 39.9777C24.7736 39.9856 24.7635 39.9935 24.7526 40C17.4009 39.9935 10.0492 39.9935 2.69752 39.9935ZM21.2332 1.86754C21.1827 1.86253 21.1381 1.85656 21.0975 1.85113C21.0332 1.84251 20.9788 1.83523 20.9268 1.83523C19.4689 1.83523 18.0116 1.83452 16.5546 1.8338C13.6413 1.83236 10.729 1.83093 7.81371 1.83523C6.93386 1.83523 6.39944 2.38448 6.39944 3.26332V32.1939C6.39944 33.0792 6.92082 33.609 7.81371 33.609C14.8004 33.6155 21.7806 33.6155 28.7674 33.6026C29.0411 33.6026 29.3409 33.5121 29.5755 33.3699C30.0709 33.0792 30.1491 32.5751 30.1491 32.0452C30.1425 25.0792 30.1425 18.1195 30.1425 11.1535V10.6947H29.6733H22.465C21.546 10.6947 21.2267 10.3845 21.2267 9.47983V2.33278C21.2332 2.18416 21.2332 2.03555 21.2332 1.86754ZM25.5803 35.4572H25.0655C23.6422 35.4572 22.219 35.4576 20.7958 35.458C16.5227 35.4592 12.2497 35.4604 7.97665 35.4507C7.55302 35.4507 7.10985 35.3926 6.69925 35.2698C5.63691 34.9467 4.54847 33.8675 4.55498 32.1098C4.57454 25.8035 4.5721 19.4971 4.56966 13.1908C4.56885 11.09 4.56803 8.98929 4.56803 6.88855V6.35219H3.50568C2.31299 6.35219 1.84374 6.82392 1.84374 8.01294V36.5105C1.84374 37.7189 2.30646 38.1777 3.53826 38.1777H23.9314C23.964 38.1777 23.9965 38.1781 24.0291 38.1785C24.1269 38.1797 24.2247 38.1809 24.3225 38.1712C25.0133 38.1131 25.5086 37.6736 25.5673 36.9887C25.5992 36.6447 25.5928 36.2976 25.5861 35.934L25.5861 35.9338C25.5832 35.7783 25.5803 35.6198 25.5803 35.4572ZM23.1102 8.82716H28.7674C26.8577 6.95317 24.9807 5.11795 23.1102 3.28919V8.82716ZM18.6993 26.26H10.726C9.95267 26.26 9.52598 25.7801 9.66598 25.1001C9.74598 24.7001 9.986 24.4601 10.3927 24.3934C10.5527 24.3667 10.7126 24.3667 10.8726 24.3667H26.4993C26.6727 24.3667 26.8527 24.3734 27.0193 24.4001C27.466 24.4867 27.7326 24.82 27.7393 25.2867C27.746 25.7734 27.4926 26.1334 27.0326 26.2267C26.866 26.26 26.6861 26.26 26.5128 26.26H26.5127H18.6993ZM26.6658 29.34H18.7324C16.9457 29.34 15.1591 29.34 13.3724 29.3333C13.1409 29.3333 12.9093 29.3329 12.6778 29.3325C11.9827 29.3312 11.2876 29.33 10.5924 29.34C9.89911 29.3533 9.49245 29.92 9.68578 30.58C9.82578 31.04 10.1458 31.2267 10.8458 31.2267H26.5524C26.6991 31.2267 26.8458 31.22 26.9924 31.2C27.4124 31.1333 27.6924 30.84 27.7391 30.42C27.8124 29.7533 27.4124 29.34 26.6658 29.34ZM18.7124 16.2867H10.6591C9.91906 16.2867 9.49908 15.7533 9.68575 15.0733C9.78575 14.7 10.0391 14.48 10.4257 14.4334C10.5538 14.4173 10.6818 14.4184 10.8098 14.4195C10.8418 14.4197 10.8738 14.42 10.9057 14.42H26.4924L26.5393 14.4198L26.5886 14.4195H26.5886C26.7183 14.4184 26.8496 14.4173 26.9724 14.4334C27.4391 14.4867 27.7457 14.86 27.7457 15.36C27.7457 15.8534 27.4324 16.2267 26.9724 16.2867C26.8676 16.301 26.7629 16.2982 26.6581 16.2955C26.6162 16.2944 26.5743 16.2933 26.5324 16.2933C23.9191 16.2867 21.3124 16.2867 18.7124 16.2867ZM10.6925 21.2734H18.6659H26.5192C26.5485 21.2734 26.5778 21.2737 26.6071 21.2739C26.7245 21.275 26.8418 21.2761 26.9592 21.26C27.4459 21.1867 27.7459 20.8067 27.7325 20.2934C27.7192 19.8 27.4192 19.46 26.9259 19.4067C26.7794 19.3867 26.6328 19.3867 26.4863 19.3867H26.4859H10.8992H10.8987C10.7389 19.3867 10.579 19.3867 10.4192 19.4067C10.0125 19.4534 9.76589 19.6934 9.67255 20.0867C9.50589 20.7734 9.93253 21.2734 10.6925 21.2734ZM15.8731 9.43259H15.8737C16.931 9.43135 17.9901 9.4301 19.0455 9.4401C19.7922 9.44677 20.2189 10.1734 19.8789 10.8334C19.7055 11.1667 19.4189 11.3068 19.0589 11.3134C18.6758 11.3134 18.2943 11.3151 17.9129 11.3168L17.9122 11.3168L17.9116 11.3168C17.5301 11.3184 17.1487 11.3201 16.7655 11.3201C16.09 11.3201 15.4144 11.3208 14.7389 11.3216C13.3878 11.3231 12.0367 11.3245 10.6855 11.3201C9.93221 11.3201 9.52553 10.8467 9.6722 10.1667C9.7722 9.69341 10.0922 9.44677 10.6389 9.4401C12.0255 9.43343 13.4255 9.43343 14.8188 9.43343C15.1699 9.43343 15.5214 9.43301 15.8731 9.43259ZM13.7764 4.44988C13.5264 4.45168 13.2762 4.45349 13.0261 4.45349C12.2394 4.44682 11.4461 4.44016 10.6528 4.46016C10.0194 4.46682 9.63278 4.83348 9.63278 5.40681C9.63278 5.96015 9.99942 6.34017 10.6128 6.34684C12.2328 6.36017 13.8594 6.3535 15.4794 6.34684C15.8527 6.34684 16.1661 6.22015 16.3461 5.86682C16.6861 5.20681 16.2728 4.48016 15.5195 4.46016C14.9409 4.4415 14.3591 4.44569 13.7764 4.44988Z" fill="black"/>
</svg>
