<svg width="40" height="40" viewBox="0 0 40 40" fill="none" xmlns="http://www.w3.org/2000/svg">
<path fill-rule="evenodd" clip-rule="evenodd" d="M7.56789 3.6642H7.05275C7.05275 3.4912 7.05274 3.36048 7.0489 3.22592C7.0489 3.01637 7.04866 2.80706 7.04842 2.59787C7.0477 1.9704 7.04698 1.344 7.05275 0.715442C7.05659 0.423259 6.98353 0.177218 6.69904 0.0503491C6.40301 -0.0803643 6.18388 0.0618817 5.98012 0.265641C5.21965 1.0215 4.45857 1.77675 3.69737 2.53212C2.5537 3.66702 1.40976 4.8022 0.267202 5.94014C-0.0864914 6.28999 -0.0903397 6.56297 0.263354 6.91282C1.6963 8.34 3.13356 9.76501 4.57029 11.1895C5.04933 11.6644 5.5283 12.1393 6.00703 12.6142C6.2031 12.8064 6.41454 12.9295 6.69519 12.8064C6.96815 12.6911 7.05275 12.4681 7.05275 12.1875C7.05018 11.6211 7.05104 11.0546 7.05189 10.4882C7.05232 10.205 7.05275 9.92178 7.05275 9.63856V9.19646H7.52561H12.2197C12.3658 9.19646 12.5158 9.19644 12.6619 9.17337C12.9694 9.11955 13.1424 8.90812 13.1386 8.61593C13.1347 8.32375 12.9464 8.11613 12.6426 8.07384C12.5626 8.06105 12.4853 8.06157 12.4062 8.06211C12.3903 8.06221 12.3743 8.06232 12.3581 8.06232C11.7289 8.06232 11.0997 8.0619 10.4705 8.06147C9.21206 8.06061 7.95362 8.05976 6.69519 8.06232C6.07622 8.06617 5.91861 8.22762 5.91861 8.86581V10.8803C5.43647 10.3871 4.95867 9.89819 4.48637 9.41492C3.48616 8.39148 2.51059 7.39325 1.57049 6.43225C2.43635 5.54486 3.3275 4.63366 4.23469 3.70606C4.78564 3.14271 5.34251 2.57331 5.90322 1.99952C5.90488 2.0252 5.90654 2.04946 5.90812 2.0726C5.91387 2.15682 5.91861 2.22619 5.91861 2.29555C5.92026 2.56079 5.91979 2.82674 5.91932 3.09278C5.9187 3.44758 5.91807 3.80256 5.92246 4.15628C5.92631 4.57918 6.11852 4.77142 6.53372 4.79449C6.6057 4.80025 6.67552 4.79954 6.74641 4.79882C6.77018 4.79858 6.79408 4.79834 6.81821 4.79834H19.6858C19.7049 4.79834 19.7241 4.79841 19.7433 4.79849C19.8595 4.79896 19.9773 4.79943 20.0894 4.78294C20.3624 4.74065 20.5546 4.52921 20.57 4.26394C20.5854 3.99867 20.4201 3.76414 20.1471 3.69879C19.9934 3.6642 19.8281 3.6642 19.6667 3.6642H19.6665H7.56789ZM7.82123 19.9726C7.82123 19.395 7.82209 18.8175 7.82295 18.2399V18.2398C7.82523 16.6991 7.82752 15.1583 7.81354 13.6176C7.80969 13.1371 7.97885 12.8564 8.39406 12.618C12.1117 10.4882 15.8216 8.34677 19.5277 6.19384C19.8737 5.99393 20.1582 6.00162 20.5004 6.19769C24.2411 8.36984 27.9856 10.5305 31.734 12.6872C32.0723 12.8795 32.1992 13.1294 32.1992 13.5061C32.1915 17.835 32.1915 22.1678 32.1992 26.4967C32.1992 26.8773 32.0569 27.1157 31.7263 27.3079C27.9895 29.457 24.2526 31.6099 20.5273 33.7782C20.1544 33.9974 19.8545 33.9858 19.4854 33.7705C15.8062 31.633 12.1194 29.4993 8.4248 27.3886C7.97499 27.1311 7.81354 26.8274 7.81738 26.3237C7.82815 24.8436 7.82573 23.3616 7.82331 21.879C7.82227 21.2436 7.82123 20.6081 7.82123 19.9726ZM31.0304 26.3968V14.2904C29.4656 15.1941 27.9106 16.0918 26.3638 16.9847L26.3575 16.9883L26.3418 16.9974C24.4151 18.1096 22.5011 19.2146 20.5965 20.3148V32.425C24.1142 30.3951 27.5858 28.3882 31.0304 26.3968ZM8.97841 26.3929C12.4385 28.3882 15.9139 30.3951 19.4278 32.425V20.3148C18.4282 19.7381 17.4325 19.1652 16.3752 18.5578V19.8573C16.3752 20.1646 16.3729 20.472 16.3706 20.7793V20.7794C16.3651 21.5251 16.3595 22.2703 16.3868 23.0136C16.406 23.5749 15.9024 23.9555 15.3833 23.5749C15.331 23.5379 15.2737 23.5084 15.2154 23.4783L15.1719 23.4557C14.8829 23.2893 14.5952 23.1213 14.3076 22.9534C13.7114 22.6053 13.1158 22.2576 12.5115 21.9256C12.1463 21.7257 12.0002 21.4643 12.004 21.049C12.0156 19.9076 12.0141 18.764 12.0127 17.6215V17.6211V17.6208C12.0122 17.2397 12.0117 16.8587 12.0117 16.4779V16.0358C11.3527 15.6549 10.7051 15.2822 10.0476 14.9038L10.0441 14.9018C9.69406 14.7003 9.34117 14.4972 8.98225 14.2904C8.97841 18.3579 8.97841 22.3562 8.97841 26.3929ZM27.432 11.5224C25.4309 12.6772 23.4374 13.8295 21.4369 14.9858C19.9477 15.8466 18.4547 16.7096 16.9519 17.5775C18.0207 18.1964 19.0202 18.7731 20.0121 19.3421C21.8577 18.2761 23.6948 17.2155 25.5363 16.1523C27.1816 15.2024 28.8305 14.2505 30.4922 13.2908C29.435 12.6834 28.4392 12.1067 27.432 11.5224ZM21.2903 7.97671L21.289 7.97599L21.2832 7.97261C20.8538 7.7243 20.4307 7.47966 20.0083 7.23572L16.3637 9.3404C14.0912 10.6528 11.822 11.9633 9.52819 13.287L10.3006 13.7334C11.0783 14.1829 11.8314 14.6181 12.5845 15.0555C14.1784 14.1361 15.769 13.2176 17.3653 12.2958L17.3672 12.2947C19.2549 11.2047 21.1504 10.1101 23.0685 9.00421C22.4552 8.65028 21.867 8.31017 21.2903 7.97671ZM15.8178 16.9239C19.3086 14.9094 22.7763 12.9064 26.3017 10.8688L25.726 10.5363L25.7255 10.536C25.1972 10.2308 24.6957 9.94116 24.2026 9.65775C22.8835 10.42 21.5704 11.1784 20.2586 11.9361L20.2516 11.9402C18.0789 13.1951 15.9097 14.448 13.7225 15.7129C14.2395 16.0129 14.7172 16.2886 15.1935 16.5635L15.1948 16.5642L15.8178 16.9239ZM13.9553 17.1607L13.9549 17.1605L13.9536 17.1598C13.6917 17.0097 13.4256 16.8572 13.1535 16.7009V20.9798L13.164 20.9858C13.8372 21.3721 14.5105 21.7586 15.2296 22.1678V17.8927C14.8106 17.6509 14.3886 17.4091 13.9553 17.1607ZM32.9605 30.8142V28.5844V27.7732C32.9605 27.5079 33.0605 27.3003 33.3142 27.1888C33.5756 27.0735 33.7871 27.1657 33.9716 27.3503C34.5752 27.9462 35.1788 28.5459 35.7824 29.1457C36.4283 29.7878 37.0752 30.4289 37.7222 31.0701L37.726 31.0739C38.3715 31.7136 39.0169 32.3533 39.6615 32.994C40.1228 33.4515 40.1228 33.686 39.6576 34.1435C37.8127 35.977 35.9677 37.8068 34.1189 39.6403L34.118 39.6412L34.0831 39.6758C34.037 39.7219 33.987 39.7719 33.937 39.818C33.7525 39.9833 33.5449 40.0602 33.3065 39.9449C33.0759 39.8373 32.9605 39.6527 32.9567 39.399V37.619V36.3349H32.4377H20.3352H20.3351C20.1737 36.3349 20.0084 36.3349 19.8546 36.2965C19.5817 36.2311 19.4202 35.9927 19.4356 35.7275C19.451 35.4622 19.6432 35.2508 19.92 35.2162C20.0247 35.2012 20.1293 35.2025 20.234 35.2039C20.2639 35.2042 20.2938 35.2046 20.3237 35.2046H33.195C33.222 35.2046 33.2489 35.2042 33.2758 35.2038C33.3296 35.2029 33.3834 35.202 33.4372 35.2046C33.8832 35.2238 34.0793 35.4122 34.0831 35.8505C34.0889 36.3056 34.0882 36.7608 34.0874 37.216C34.0872 37.3682 34.0869 37.5205 34.0869 37.6728V37.9534C34.0952 37.9603 34.1034 37.9667 34.1117 37.9729C34.115 37.9754 34.1183 37.9779 34.1216 37.9804C34.1331 37.989 34.1446 37.9976 34.1562 38.0072C34.9131 37.2542 35.6701 36.5022 36.4235 35.7537C37.1432 35.0387 37.8596 34.3269 38.5696 33.6207L37.556 32.5885C36.4209 31.4327 35.2861 30.2771 34.1216 29.0919C34.1159 29.1483 34.1097 29.197 34.1042 29.2408C34.0946 29.3162 34.0869 29.377 34.0869 29.4378C34.0844 29.8069 34.0852 30.176 34.0861 30.5451C34.0865 30.7296 34.0869 30.9141 34.0869 31.0987C34.0869 31.7945 33.9332 31.9445 33.2258 31.9483C32.3082 31.9509 31.3907 31.95 30.4731 31.9492C30.0143 31.9487 29.5556 31.9483 29.0968 31.9483C28.9502 31.9483 28.8033 31.9492 28.6562 31.95H28.6562C28.2635 31.9523 27.8699 31.9546 27.4783 31.9406C27.0861 31.9291 26.8708 31.7099 26.867 31.3793C26.867 31.0987 27.0323 30.8872 27.3091 30.8372C27.4235 30.8171 27.5438 30.8175 27.6622 30.8179L27.7128 30.818H32.4876C32.6414 30.8142 32.7875 30.8142 32.9605 30.8142Z" fill="black"/>
</svg>
