<svg width="39" height="40" viewBox="0 0 39 40" fill="none" xmlns="http://www.w3.org/2000/svg">
<path fill-rule="evenodd" clip-rule="evenodd" d="M30.9786 1.72637C30.6327 1.79023 30.3183 1.84883 30.0135 1.90564L29.5415 1.99354C28.9788 2.09474 28.5942 1.89638 28.5052 1.45917C28.4161 0.997679 28.6995 0.673839 29.2865 0.564538C30.2054 0.394514 31.1284 0.220429 32.0473 0.0463569C32.8286 -0.0993781 33.0877 0.0787504 33.2416 0.8641C33.4237 1.81138 33.6059 2.7627 33.7719 3.71402C33.869 4.27672 33.6423 4.63702 33.1889 4.70989C32.772 4.77466 32.4562 4.49534 32.3428 3.95693C32.3151 3.82671 32.2912 3.6946 32.2672 3.56189L32.2671 3.5613C32.2561 3.5003 32.245 3.43917 32.2336 3.37804L32.2044 3.22317L32.2041 3.22162L32.204 3.22101C32.1765 3.07496 32.1466 2.91655 32.1081 2.70602C31.9583 2.93272 31.8571 3.09062 31.7559 3.25255C25.8212 12.5472 17.9879 19.7692 8.13059 24.7363C6.68489 25.466 5.18488 26.0853 3.68406 26.7048C2.97855 26.9961 2.27285 27.2874 1.57254 27.5903C1.47538 27.6308 1.37415 27.6712 1.27295 27.6955C0.847887 27.8008 0.48357 27.6186 0.358076 27.2421C0.228534 26.8576 0.390456 26.5013 0.80742 26.3313C1.19647 26.1749 1.58821 26.0248 1.9801 25.8747C2.42008 25.7061 2.86026 25.5374 3.29705 25.3597C12.2436 21.6961 19.7854 16.1177 25.9872 8.71356C27.7198 6.64898 29.2905 4.46699 30.7155 2.17976C30.7587 2.10706 30.8005 2.03436 30.849 1.95022L30.8491 1.95011C30.887 1.88434 30.9289 1.81158 30.9786 1.72637ZM38.4879 38.5852V23.3477V7.92817C38.4879 6.99709 38.0992 6.60035 37.1681 6.5963C35.8646 6.5882 34.5651 6.5882 33.2657 6.5963C32.3427 6.60035 31.9541 7.00112 31.9541 7.93625V38.6378C31.9541 39.5972 32.3386 39.9858 33.2981 39.9899C34.5692 39.9939 35.8363 39.9939 37.1074 39.9899C38.1235 39.9858 38.4879 39.6134 38.4879 38.5852ZM33.4276 38.5082V8.0739H37.0143V38.5082H33.4276ZM23.963 16.6844V27.6105V38.6338C23.963 39.6053 24.3354 39.9899 25.2949 39.9939C26.5781 39.998 27.8655 39.998 29.1488 39.9939C30.1122 39.9899 30.4968 39.6013 30.4968 38.6459V16.6561C30.4968 15.7007 30.1082 15.3162 29.1407 15.3121C27.8695 15.3081 26.6024 15.3081 25.3313 15.3121C24.3395 15.3162 23.963 15.6926 23.963 16.6844ZM29.0273 16.7897V38.5244H25.4528V16.7897H29.0273ZM15.9756 23.9267V31.2701C15.9756 33.7314 15.9756 36.1968 15.9796 38.6621C15.9796 39.5973 16.3642 39.9899 17.2953 39.994C18.5948 40.0021 19.8942 40.0021 21.1937 39.994C22.1248 39.9899 22.5094 39.5932 22.5094 38.6621V23.9267C22.5094 22.9673 22.1248 22.5746 21.1694 22.5705C19.8862 22.5665 18.5988 22.5665 17.3155 22.5705C16.3602 22.5746 15.9756 22.9673 15.9756 23.9267ZM17.4532 38.5042V24.0441H21.0399V38.5042H17.4532ZM14.527 33.5128V38.6783C14.527 39.577 14.1343 39.9818 13.2356 39.9899C11.9199 39.998 10.6083 39.998 9.29264 39.9899C8.3899 39.9858 7.99316 39.5851 7.99316 38.6864V28.2177C7.99316 27.3433 8.38989 26.9345 9.26025 26.9264C10.5881 26.9183 11.9199 26.9183 13.2477 26.9264C14.1221 26.9304 14.5229 27.3433 14.5229 28.2096C14.527 29.9746 14.527 31.7437 14.527 33.5128ZM13.0413 38.5123V28.3999H9.47884V38.5123H13.0413ZM0.00090033 34.5931C0.00134993 34.9403 0.00179934 35.2874 0.00179934 35.634V38.7147C0.00584754 39.5648 0.398518 39.9818 1.23649 39.9899C2.59669 40.002 3.95689 40.002 5.31708 39.9899C6.13077 39.9818 6.53557 39.5608 6.53557 38.7471C6.53962 36.6785 6.53962 34.6098 6.53557 32.5412C6.53557 31.7235 6.1348 31.2944 5.32516 31.2863C3.94878 31.2701 2.57644 31.2701 1.20005 31.2863C0.414699 31.2944 0.00584754 31.7275 0.00179934 32.5088C-0.000900037 33.2026 1.46108e-07 33.8981 0.00090033 34.5931ZM5.06204 32.7598V38.5123H1.48748V32.7598H5.06204Z" fill="black"/>
</svg>
